<?xml version="1.0" encoding="iso-8859-1"?>
<!-- Generator: Adobe Illustrator 19.0.0, SVG Export Plug-In . SVG Version: 6.00 Build 0)  -->
<svg version="1.1" id="Layer_1" xmlns="http://www.w3.org/2000/svg" xmlns:xlink="http://www.w3.org/1999/xlink" x="0px" y="0px"
	 viewBox="0 0 512 512" style="enable-background:new 0 0 512 512;" xml:space="preserve">
<path d="M0,0v233.739h233.739V0H0z M200.348,200.348H33.391V33.391h166.957V200.348z"/>
<rect x="66.783" y="66.783" width="100.174" height="100.174"/>
<path d="M278.261,0v233.739H512V0H278.261z M478.609,200.348H311.652V33.391h166.957V200.348z"/>
<rect x="345.043" y="66.783" width="100.174" height="100.174"/>
<path d="M0,278.261V512h233.739V278.261H0z M200.348,478.609H33.391V311.652h166.957V478.609z"/>
<rect x="66.783" y="345.043" width="100.174" height="100.174"/>
<polygon points="278.261,278.261 278.261,512 345.043,512 345.043,478.609 311.652,478.609 311.652,411.826 345.043,411.826 
	345.043,378.435 311.652,378.435 311.652,311.652 345.043,311.652 345.043,278.261 "/>
<rect x="478.609" y="278.261" width="33.391" height="33.391"/>
<polygon points="478.609,478.609 445.217,478.609 445.217,512 512,512 512,356.174 478.609,356.174 "/>
<rect x="378.435" y="278.261" width="66.783" height="33.391"/>
<polygon points="445.217,411.826 411.826,411.826 411.826,378.435 445.217,378.435 445.217,345.043 378.435,345.043 
	378.435,445.217 445.217,445.217 "/>
<rect x="378.435" y="478.609" width="33.391" height="33.391"/>
<g>
</g>
<g>
</g>
<g>
</g>
<g>
</g>
<g>
</g>
<g>
</g>
<g>
</g>
<g>
</g>
<g>
</g>
<g>
</g>
<g>
</g>
<g>
</g>
<g>
</g>
<g>
</g>
<g>
</g>
</svg>
